<svg width="150" height="155" viewBox="0 0 150 155" fill="none" xmlns="http://www.w3.org/2000/svg">
<path d="M15.1798 127.14C16.8052 127.14 18.1152 127.577 19.1098 128.45C20.1045 129.323 20.6018 130.476 20.6018 131.907C20.6018 133.071 20.2743 134.248 19.6193 135.437C18.9643 136.601 18.0788 137.632 16.9629 138.53C15.8712 139.427 14.6582 140.058 13.3239 140.422L12.7781 139.476C13.8213 138.991 14.6582 138.251 15.289 137.256C15.944 136.237 16.2715 135.146 16.2715 133.981C16.2715 132.598 15.8954 131.495 15.1434 130.67C14.3913 129.821 13.4088 129.396 12.1959 129.396C10.9101 129.396 9.69713 129.918 8.55693 130.961C7.44099 131.98 6.54338 133.363 5.86412 135.109C5.20911 136.832 4.8816 138.688 4.8816 140.677C4.8816 142.715 5.19698 144.522 5.82773 146.099C6.45847 147.651 7.33182 148.864 8.44776 149.738C9.58796 150.611 10.8858 151.048 12.3414 151.048C13.3846 151.048 14.4277 150.793 15.4709 150.284C16.5383 149.75 17.5694 148.986 18.564 147.991L19.5465 148.901C18.4063 150.381 16.9871 151.618 15.289 152.613C13.615 153.583 11.8562 154.068 10.0125 154.068C8.02321 154.068 6.27653 153.607 4.77243 152.685C3.2926 151.763 2.1524 150.49 1.35184 148.864C0.551271 147.215 0.150989 145.335 0.150989 143.224C0.150989 140.264 0.818126 137.559 2.1524 135.109C3.51094 132.635 5.3304 130.694 7.6108 129.287C9.91546 127.856 12.4385 127.14 15.1798 127.14Z" fill="#00D8FF"/>
<path d="M15.1798 127.14C16.8052 127.14 18.1152 127.577 19.1098 128.45C20.1045 129.323 20.6018 130.476 20.6018 131.907C20.6018 133.071 20.2743 134.248 19.6193 135.437C18.9643 136.601 18.0788 137.632 16.9629 138.53C15.8712 139.427 14.6582 140.058 13.3239 140.422L12.7781 139.476C13.8213 138.991 14.6582 138.251 15.289 137.256C15.944 136.237 16.2715 135.146 16.2715 133.981C16.2715 132.598 15.8954 131.495 15.1434 130.67C14.3913 129.821 13.4088 129.396 12.1959 129.396C10.9101 129.396 9.69713 129.918 8.55693 130.961C7.44099 131.98 6.54338 133.363 5.86412 135.109C5.20911 136.832 4.8816 138.688 4.8816 140.677C4.8816 142.715 5.19698 144.522 5.82773 146.099C6.45847 147.651 7.33182 148.864 8.44776 149.738C9.58796 150.611 10.8858 151.048 12.3414 151.048C13.3846 151.048 14.4277 150.793 15.4709 150.284C16.5383 149.75 17.5694 148.986 18.564 147.991L19.5465 148.901C18.4063 150.381 16.9871 151.618 15.289 152.613C13.615 153.583 11.8562 154.068 10.0125 154.068C8.02321 154.068 6.27653 153.607 4.77243 152.685C3.2926 151.763 2.1524 150.49 1.35184 148.864C0.551271 147.215 0.150989 145.335 0.150989 143.224C0.150989 140.264 0.818126 137.559 2.1524 135.109C3.51094 132.635 5.3304 130.694 7.6108 129.287C9.91546 127.856 12.4385 127.14 15.1798 127.14Z" fill="url(#paint0_linear)" fill-opacity="0.2"/>
<path d="M34.969 135.946C33.3679 137.086 32.1064 138.384 31.1846 139.84C30.287 141.271 29.8381 142.957 29.8381 144.898C29.8381 145.965 30.0444 147.045 30.4568 148.137C30.8692 149.228 31.4757 150.138 32.2762 150.866C33.0768 151.569 34.0351 151.921 35.151 151.921C36.558 151.921 37.6861 151.412 38.5352 150.393C39.4085 149.374 39.8452 148.112 39.8452 146.608C39.8452 145.468 39.542 144.316 38.9355 143.151C38.3533 141.963 37.5648 140.968 36.5702 140.167C35.5755 139.343 34.5081 138.882 33.3679 138.785C33.8774 138.227 34.4232 137.717 35.0054 137.256C35.6119 136.795 36.364 136.237 37.2616 135.582C39.0083 136.165 40.3911 137.244 41.41 138.821C42.4531 140.398 42.9747 142.132 42.9747 144.025C42.9747 145.699 42.5987 147.324 41.8466 148.901C41.1188 150.478 40.0514 151.763 38.6444 152.758C37.2616 153.728 35.6483 154.214 33.8046 154.214C32.2762 154.214 30.8692 153.862 29.5834 153.158C28.3219 152.431 27.3152 151.448 26.5631 150.211C25.8111 148.949 25.435 147.567 25.435 146.062C25.435 143.467 26.2477 141.186 27.8731 139.221C29.5228 137.256 31.6576 135.886 34.2776 135.109L34.969 135.946Z" fill="#00D8FF"/>
<path d="M34.969 135.946C33.3679 137.086 32.1064 138.384 31.1846 139.84C30.287 141.271 29.8381 142.957 29.8381 144.898C29.8381 145.965 30.0444 147.045 30.4568 148.137C30.8692 149.228 31.4757 150.138 32.2762 150.866C33.0768 151.569 34.0351 151.921 35.151 151.921C36.558 151.921 37.6861 151.412 38.5352 150.393C39.4085 149.374 39.8452 148.112 39.8452 146.608C39.8452 145.468 39.542 144.316 38.9355 143.151C38.3533 141.963 37.5648 140.968 36.5702 140.167C35.5755 139.343 34.5081 138.882 33.3679 138.785C33.8774 138.227 34.4232 137.717 35.0054 137.256C35.6119 136.795 36.364 136.237 37.2616 135.582C39.0083 136.165 40.3911 137.244 41.41 138.821C42.4531 140.398 42.9747 142.132 42.9747 144.025C42.9747 145.699 42.5987 147.324 41.8466 148.901C41.1188 150.478 40.0514 151.763 38.6444 152.758C37.2616 153.728 35.6483 154.214 33.8046 154.214C32.2762 154.214 30.8692 153.862 29.5834 153.158C28.3219 152.431 27.3152 151.448 26.5631 150.211C25.8111 148.949 25.435 147.567 25.435 146.062C25.435 143.467 26.2477 141.186 27.8731 139.221C29.5228 137.256 31.6576 135.886 34.2776 135.109L34.969 135.946Z" fill="url(#paint1_linear)" fill-opacity="0.2"/>
<path d="M63.9574 135.182C64.8065 135.182 65.4251 135.437 65.8133 135.946C66.2014 136.431 66.444 137.014 66.5411 137.693C66.6381 138.348 66.6866 139.197 66.6866 140.24V150.356C66.6866 150.648 66.7715 150.927 66.9413 151.193C67.1354 151.436 67.3659 151.557 67.6327 151.557C67.9966 151.557 68.312 151.448 68.5789 151.23C68.87 150.987 69.1732 150.672 69.4886 150.284L70.1072 150.975C69.6705 151.824 69.0641 152.54 68.2878 153.122C67.5357 153.68 66.723 153.959 65.8497 153.959C64.6852 153.959 63.8119 153.631 63.2296 152.976C62.6474 152.297 62.3563 151.351 62.3563 150.138V140.604C62.3563 140.264 62.3199 139.973 62.2471 139.731C62.1743 139.488 62.0045 139.367 61.7377 139.367C60.9128 139.367 60.0759 140.252 59.2268 142.023C58.3777 143.77 57.6621 145.783 57.0798 148.064C56.4976 150.344 56.2065 152.067 56.2065 153.231L51.9489 154.177V138.894C51.9489 138.53 51.864 138.227 51.6942 137.984C51.5244 137.741 51.2818 137.62 50.9664 137.62C50.6268 137.62 50.2872 137.766 49.9475 138.057C49.6321 138.324 49.3653 138.639 49.147 139.003L48.492 138.275C48.8558 137.426 49.4259 136.698 50.2022 136.092C50.9786 135.485 51.8155 135.182 52.7131 135.182C53.9261 135.182 54.8116 135.522 55.3695 136.201C55.9275 136.856 56.2065 137.778 56.2065 138.967V145.99H56.352C57.0071 143.297 57.9774 140.822 59.2632 138.566C60.5732 136.31 62.138 135.182 63.9574 135.182Z" fill="#00D8FF"/>
<path d="M63.9574 135.182C64.8065 135.182 65.4251 135.437 65.8133 135.946C66.2014 136.431 66.444 137.014 66.5411 137.693C66.6381 138.348 66.6866 139.197 66.6866 140.24V150.356C66.6866 150.648 66.7715 150.927 66.9413 151.193C67.1354 151.436 67.3659 151.557 67.6327 151.557C67.9966 151.557 68.312 151.448 68.5789 151.23C68.87 150.987 69.1732 150.672 69.4886 150.284L70.1072 150.975C69.6705 151.824 69.0641 152.54 68.2878 153.122C67.5357 153.68 66.723 153.959 65.8497 153.959C64.6852 153.959 63.8119 153.631 63.2296 152.976C62.6474 152.297 62.3563 151.351 62.3563 150.138V140.604C62.3563 140.264 62.3199 139.973 62.2471 139.731C62.1743 139.488 62.0045 139.367 61.7377 139.367C60.9128 139.367 60.0759 140.252 59.2268 142.023C58.3777 143.77 57.6621 145.783 57.0798 148.064C56.4976 150.344 56.2065 152.067 56.2065 153.231L51.9489 154.177V138.894C51.9489 138.53 51.864 138.227 51.6942 137.984C51.5244 137.741 51.2818 137.62 50.9664 137.62C50.6268 137.62 50.2872 137.766 49.9475 138.057C49.6321 138.324 49.3653 138.639 49.147 139.003L48.492 138.275C48.8558 137.426 49.4259 136.698 50.2022 136.092C50.9786 135.485 51.8155 135.182 52.7131 135.182C53.9261 135.182 54.8116 135.522 55.3695 136.201C55.9275 136.856 56.2065 137.778 56.2065 138.967V145.99H56.352C57.0071 143.297 57.9774 140.822 59.2632 138.566C60.5732 136.31 62.138 135.182 63.9574 135.182Z" fill="url(#paint2_linear)" fill-opacity="0.2"/>
<path d="M81.7933 137.911V150.356C81.7933 150.696 81.8904 150.987 82.0844 151.23C82.2785 151.448 82.5332 151.557 82.8486 151.557C83.4308 151.557 84.0858 151.133 84.8136 150.284L85.4686 150.975C85.032 151.848 84.4861 152.503 83.8311 152.94C83.1761 153.377 82.5454 153.668 81.9389 153.813C81.3324 153.959 81.0291 154.007 81.0291 153.959C78.6032 153.959 77.3902 152.685 77.3902 150.138V137.911H74.8066L75.9346 135.51H77.3902V127.249L81.7933 125.757V135.51H86.5603L85.4686 137.911H81.7933Z" fill="#00D8FF"/>
<path d="M81.7933 137.911V150.356C81.7933 150.696 81.8904 150.987 82.0844 151.23C82.2785 151.448 82.5332 151.557 82.8486 151.557C83.4308 151.557 84.0858 151.133 84.8136 150.284L85.4686 150.975C85.032 151.848 84.4861 152.503 83.8311 152.94C83.1761 153.377 82.5454 153.668 81.9389 153.813C81.3324 153.959 81.0291 154.007 81.0291 153.959C78.6032 153.959 77.3902 152.685 77.3902 150.138V137.911H74.8066L75.9346 135.51H77.3902V127.249L81.7933 125.757V135.51H86.5603L85.4686 137.911H81.7933Z" fill="url(#paint3_linear)" fill-opacity="0.2"/>
<path d="M102.42 135.182C103.827 135.182 105.003 135.546 105.949 136.274C106.895 136.977 107.368 138.008 107.368 139.367C107.368 140.458 106.774 141.684 105.585 143.042C104.421 144.376 103.026 145.626 101.401 146.79C99.7995 147.93 98.4288 148.755 97.2886 149.265C98.3075 150.89 99.7995 151.703 101.765 151.703C102.856 151.703 103.948 151.4 105.04 150.793C106.155 150.162 107.102 149.338 107.878 148.319L108.606 149.192C107.344 150.769 106.01 151.994 104.603 152.867C103.22 153.716 101.57 154.141 99.6539 154.141C98.1013 154.141 96.7064 153.789 95.4692 153.086C94.2562 152.382 93.2979 151.424 92.5944 150.211C91.9151 148.974 91.5755 147.591 91.5755 146.062C91.5755 144.219 92.0728 142.46 93.0675 140.786C94.0864 139.088 95.4328 137.729 97.1067 136.71C98.7806 135.691 100.552 135.182 102.42 135.182ZM100.345 137.547C99.4235 137.547 98.5986 137.887 97.8709 138.566C97.1431 139.221 96.573 140.07 96.1606 141.114C95.7482 142.157 95.5419 143.236 95.5419 144.352C95.5419 145.808 95.8573 147.057 96.4881 148.1C97.3857 147.591 98.3318 146.887 99.3264 145.99C100.345 145.068 101.194 144.085 101.874 143.042C102.553 141.999 102.893 141.053 102.893 140.204C102.893 139.355 102.662 138.7 102.201 138.239C101.765 137.778 101.146 137.547 100.345 137.547Z" fill="#00D8FF"/>
<path d="M102.42 135.182C103.827 135.182 105.003 135.546 105.949 136.274C106.895 136.977 107.368 138.008 107.368 139.367C107.368 140.458 106.774 141.684 105.585 143.042C104.421 144.376 103.026 145.626 101.401 146.79C99.7995 147.93 98.4288 148.755 97.2886 149.265C98.3075 150.89 99.7995 151.703 101.765 151.703C102.856 151.703 103.948 151.4 105.04 150.793C106.155 150.162 107.102 149.338 107.878 148.319L108.606 149.192C107.344 150.769 106.01 151.994 104.603 152.867C103.22 153.716 101.57 154.141 99.6539 154.141C98.1013 154.141 96.7064 153.789 95.4692 153.086C94.2562 152.382 93.2979 151.424 92.5944 150.211C91.9151 148.974 91.5755 147.591 91.5755 146.062C91.5755 144.219 92.0728 142.46 93.0675 140.786C94.0864 139.088 95.4328 137.729 97.1067 136.71C98.7806 135.691 100.552 135.182 102.42 135.182ZM100.345 137.547C99.4235 137.547 98.5986 137.887 97.8709 138.566C97.1431 139.221 96.573 140.07 96.1606 141.114C95.7482 142.157 95.5419 143.236 95.5419 144.352C95.5419 145.808 95.8573 147.057 96.4881 148.1C97.3857 147.591 98.3318 146.887 99.3264 145.99C100.345 145.068 101.194 144.085 101.874 143.042C102.553 141.999 102.893 141.053 102.893 140.204C102.893 139.355 102.662 138.7 102.201 138.239C101.765 137.778 101.146 137.547 100.345 137.547Z" fill="url(#paint4_linear)" fill-opacity="0.2"/>
<path d="M132.923 151.048C132.413 151.824 131.758 152.516 130.958 153.122C130.157 153.704 129.381 153.995 128.629 153.995C127.683 153.995 126.749 153.462 125.827 152.394C124.905 151.327 123.923 149.835 122.879 147.918C122.249 149.835 121.485 151.327 120.587 152.394C119.714 153.462 118.501 153.995 116.948 153.995C115.711 153.995 114.68 153.619 113.855 152.867L115.674 148.792C115.99 149.083 116.366 149.337 116.802 149.556C117.263 149.75 117.688 149.847 118.076 149.847C118.998 149.847 119.762 149.532 120.369 148.901C120.975 148.246 121.509 147.336 121.97 146.172L121.533 145.335C120.247 142.909 119.204 141.126 118.404 139.985C117.603 138.845 116.79 138.275 115.965 138.275C115.48 138.275 115.007 138.469 114.546 138.857L113.964 138.13C114.498 137.329 115.165 136.638 115.965 136.055C116.766 135.473 117.567 135.182 118.367 135.182C119.265 135.182 120.15 135.679 121.024 136.674C121.897 137.644 122.807 139.003 123.753 140.75C124.384 138.906 125.136 137.475 126.009 136.456C126.907 135.413 128.119 134.891 129.648 134.891C130.837 134.891 131.831 135.255 132.632 135.983L130.812 140.058C130.473 139.767 130.085 139.525 129.648 139.33C129.235 139.136 128.835 139.039 128.447 139.039C127.549 139.039 126.797 139.343 126.191 139.949C125.609 140.531 125.099 141.368 124.663 142.46L125.208 143.552C126.106 145.25 126.822 146.572 127.355 147.518C127.913 148.464 128.496 149.265 129.102 149.92C129.733 150.575 130.351 150.902 130.958 150.902C131.2 150.902 131.419 150.854 131.613 150.757C131.807 150.66 132.05 150.514 132.341 150.32L132.923 151.048Z" fill="#00D8FF"/>
<path d="M132.923 151.048C132.413 151.824 131.758 152.516 130.958 153.122C130.157 153.704 129.381 153.995 128.629 153.995C127.683 153.995 126.749 153.462 125.827 152.394C124.905 151.327 123.923 149.835 122.879 147.918C122.249 149.835 121.485 151.327 120.587 152.394C119.714 153.462 118.501 153.995 116.948 153.995C115.711 153.995 114.68 153.619 113.855 152.867L115.674 148.792C115.99 149.083 116.366 149.337 116.802 149.556C117.263 149.75 117.688 149.847 118.076 149.847C118.998 149.847 119.762 149.532 120.369 148.901C120.975 148.246 121.509 147.336 121.97 146.172L121.533 145.335C120.247 142.909 119.204 141.126 118.404 139.985C117.603 138.845 116.79 138.275 115.965 138.275C115.48 138.275 115.007 138.469 114.546 138.857L113.964 138.13C114.498 137.329 115.165 136.638 115.965 136.055C116.766 135.473 117.567 135.182 118.367 135.182C119.265 135.182 120.15 135.679 121.024 136.674C121.897 137.644 122.807 139.003 123.753 140.75C124.384 138.906 125.136 137.475 126.009 136.456C126.907 135.413 128.119 134.891 129.648 134.891C130.837 134.891 131.831 135.255 132.632 135.983L130.812 140.058C130.473 139.767 130.085 139.525 129.648 139.33C129.235 139.136 128.835 139.039 128.447 139.039C127.549 139.039 126.797 139.343 126.191 139.949C125.609 140.531 125.099 141.368 124.663 142.46L125.208 143.552C126.106 145.25 126.822 146.572 127.355 147.518C127.913 148.464 128.496 149.265 129.102 149.92C129.733 150.575 130.351 150.902 130.958 150.902C131.2 150.902 131.419 150.854 131.613 150.757C131.807 150.66 132.05 150.514 132.341 150.32L132.923 151.048Z" fill="url(#paint5_linear)" fill-opacity="0.2"/>
<path d="M145.233 137.911V150.356C145.233 150.696 145.33 150.987 145.524 151.23C145.718 151.448 145.973 151.557 146.288 151.557C146.871 151.557 147.526 151.133 148.253 150.284L148.908 150.975C148.472 151.848 147.926 152.503 147.271 152.94C146.616 153.377 145.985 153.668 145.379 153.813C144.772 153.959 144.469 154.007 144.469 153.959C142.043 153.959 140.83 152.685 140.83 150.138V137.911H138.246L139.374 135.51H140.83V127.249L145.233 125.757V135.51H150L148.908 137.911H145.233Z" fill="#00D8FF"/>
<path d="M145.233 137.911V150.356C145.233 150.696 145.33 150.987 145.524 151.23C145.718 151.448 145.973 151.557 146.288 151.557C146.871 151.557 147.526 151.133 148.253 150.284L148.908 150.975C148.472 151.848 147.926 152.503 147.271 152.94C146.616 153.377 145.985 153.668 145.379 153.813C144.772 153.959 144.469 154.007 144.469 153.959C142.043 153.959 140.83 152.685 140.83 150.138V137.911H138.246L139.374 135.51H140.83V127.249L145.233 125.757V135.51H150L148.908 137.911H145.233Z" fill="url(#paint6_linear)" fill-opacity="0.2"/>
<path d="M10.944 102.922C12.1026 102.922 13.035 103.248 13.741 103.9C14.4471 104.551 14.8001 105.402 14.8001 106.452C14.8001 107.285 14.5738 108.145 14.1212 109.032C13.6867 109.919 13.1074 110.698 12.3832 111.368C11.6591 112.038 10.8987 112.49 10.1021 112.725L9.83055 112.237C10.609 111.893 11.2336 111.341 11.7043 110.58C12.1931 109.82 12.4376 109.014 12.4376 108.163C12.4376 107.077 12.1117 106.208 11.4599 105.556C10.8082 104.886 9.93918 104.551 8.85293 104.551C7.76668 104.551 6.7438 104.941 5.78428 105.719C4.82476 106.498 4.05533 107.539 3.476 108.842C2.89666 110.128 2.607 111.503 2.607 112.97C2.607 114.563 2.8514 115.966 3.34022 117.179C3.82903 118.392 4.51698 119.333 5.40409 120.003C6.3093 120.655 7.34123 120.981 8.4999 120.981C9.3689 120.981 10.2198 120.8 11.0526 120.438C11.8854 120.058 12.6457 119.515 13.3337 118.808L13.9311 119.406C12.0121 121.832 9.74003 123.045 7.11493 123.045C5.64849 123.045 4.3812 122.683 3.31306 121.959C2.24491 121.234 1.42118 120.257 0.841843 119.026C0.280614 117.777 0 116.392 0 114.871C0 112.644 0.488812 110.625 1.46644 108.815C2.46216 106.986 3.80187 105.547 5.48556 104.497C7.16924 103.447 8.98871 102.922 10.944 102.922Z" fill="#00D8FF"/>
<path d="M10.944 102.922C12.1026 102.922 13.035 103.248 13.741 103.9C14.4471 104.551 14.8001 105.402 14.8001 106.452C14.8001 107.285 14.5738 108.145 14.1212 109.032C13.6867 109.919 13.1074 110.698 12.3832 111.368C11.6591 112.038 10.8987 112.49 10.1021 112.725L9.83055 112.237C10.609 111.893 11.2336 111.341 11.7043 110.58C12.1931 109.82 12.4376 109.014 12.4376 108.163C12.4376 107.077 12.1117 106.208 11.4599 105.556C10.8082 104.886 9.93918 104.551 8.85293 104.551C7.76668 104.551 6.7438 104.941 5.78428 105.719C4.82476 106.498 4.05533 107.539 3.476 108.842C2.89666 110.128 2.607 111.503 2.607 112.97C2.607 114.563 2.8514 115.966 3.34022 117.179C3.82903 118.392 4.51698 119.333 5.40409 120.003C6.3093 120.655 7.34123 120.981 8.4999 120.981C9.3689 120.981 10.2198 120.8 11.0526 120.438C11.8854 120.058 12.6457 119.515 13.3337 118.808L13.9311 119.406C12.0121 121.832 9.74003 123.045 7.11493 123.045C5.64849 123.045 4.3812 122.683 3.31306 121.959C2.24491 121.234 1.42118 120.257 0.841843 119.026C0.280614 117.777 0 116.392 0 114.871C0 112.644 0.488812 110.625 1.46644 108.815C2.46216 106.986 3.80187 105.547 5.48556 104.497C7.16924 103.447 8.98871 102.922 10.944 102.922Z" fill="url(#paint7_linear)" fill-opacity="0.2"/>
<path d="M20.1892 116.962H20.2978C20.4788 115.966 20.7957 114.853 21.2483 113.622C21.719 112.372 22.3436 111.277 23.122 110.336C23.9005 109.394 24.8148 108.924 25.8648 108.924C26.426 108.924 26.8334 109.132 27.0868 109.548C27.3584 109.946 27.5123 110.399 27.5485 110.906C27.6028 111.413 27.63 112.083 27.63 112.916V120.465C27.63 120.682 27.6933 120.89 27.8201 121.09C27.9649 121.289 28.1821 121.388 28.4718 121.388C28.9425 121.388 29.4223 121.035 29.9111 120.329L30.237 120.737C29.9835 121.334 29.5762 121.841 29.0149 122.257C28.4718 122.674 27.9196 122.882 27.3584 122.882C25.9463 122.882 25.2402 121.968 25.2402 120.139V112.943C25.2402 112.707 25.1859 112.49 25.0773 112.291C24.9868 112.092 24.8238 111.992 24.5885 111.992C23.6652 111.992 22.8686 112.716 22.1987 114.165C21.5289 115.595 21.0129 117.179 20.6508 118.917C20.2887 120.637 20.1077 121.805 20.1077 122.42L17.6908 123.126V98.6857L20.1892 97.6538V116.962Z" fill="#00D8FF"/>
<path d="M20.1892 116.962H20.2978C20.4788 115.966 20.7957 114.853 21.2483 113.622C21.719 112.372 22.3436 111.277 23.122 110.336C23.9005 109.394 24.8148 108.924 25.8648 108.924C26.426 108.924 26.8334 109.132 27.0868 109.548C27.3584 109.946 27.5123 110.399 27.5485 110.906C27.6028 111.413 27.63 112.083 27.63 112.916V120.465C27.63 120.682 27.6933 120.89 27.8201 121.09C27.9649 121.289 28.1821 121.388 28.4718 121.388C28.9425 121.388 29.4223 121.035 29.9111 120.329L30.237 120.737C29.9835 121.334 29.5762 121.841 29.0149 122.257C28.4718 122.674 27.9196 122.882 27.3584 122.882C25.9463 122.882 25.2402 121.968 25.2402 120.139V112.943C25.2402 112.707 25.1859 112.49 25.0773 112.291C24.9868 112.092 24.8238 111.992 24.5885 111.992C23.6652 111.992 22.8686 112.716 22.1987 114.165C21.5289 115.595 21.0129 117.179 20.6508 118.917C20.2887 120.637 20.1077 121.805 20.1077 122.42L17.6908 123.126V98.6857L20.1892 97.6538V116.962Z" fill="url(#paint8_linear)" fill-opacity="0.2"/>
<path d="M38.7757 109.494C37.4179 110.363 36.3497 111.331 35.5713 112.4C34.7928 113.468 34.4035 114.726 34.4035 116.174C34.4035 116.989 34.5755 117.813 34.9195 118.646C35.2635 119.46 35.7795 120.139 36.4674 120.682C37.1554 121.225 37.9791 121.497 38.9386 121.497C39.7171 121.497 40.4051 121.316 41.0025 120.954C41.618 120.592 42.0887 120.103 42.4146 119.487C42.7586 118.872 42.9306 118.193 42.9306 117.451C42.9306 116.6 42.6681 115.731 42.1431 114.844C41.6361 113.957 40.9663 113.205 40.1335 112.59C39.3007 111.974 38.4498 111.63 37.5808 111.558C37.9429 111.196 38.3774 110.815 38.8843 110.417C39.3912 110.019 39.9072 109.63 40.4322 109.249C41.6814 109.666 42.6681 110.462 43.3922 111.639C44.1164 112.798 44.4785 114.092 44.4785 115.523C44.4785 116.79 44.216 118.012 43.691 119.189C43.184 120.347 42.4327 121.298 41.437 122.04C40.4413 122.764 39.2645 123.126 37.9067 123.126C36.8204 123.126 35.8157 122.864 34.8924 122.339C33.9871 121.796 33.272 121.062 32.747 120.139C32.222 119.216 31.9595 118.193 31.9595 117.07C31.9595 115.097 32.5388 113.386 33.6975 111.938C34.8742 110.49 36.404 109.485 38.2869 108.924L38.7757 109.494Z" fill="#00D8FF"/>
<path d="M38.7757 109.494C37.4179 110.363 36.3497 111.331 35.5713 112.4C34.7928 113.468 34.4035 114.726 34.4035 116.174C34.4035 116.989 34.5755 117.813 34.9195 118.646C35.2635 119.46 35.7795 120.139 36.4674 120.682C37.1554 121.225 37.9791 121.497 38.9386 121.497C39.7171 121.497 40.4051 121.316 41.0025 120.954C41.618 120.592 42.0887 120.103 42.4146 119.487C42.7586 118.872 42.9306 118.193 42.9306 117.451C42.9306 116.6 42.6681 115.731 42.1431 114.844C41.6361 113.957 40.9663 113.205 40.1335 112.59C39.3007 111.974 38.4498 111.63 37.5808 111.558C37.9429 111.196 38.3774 110.815 38.8843 110.417C39.3912 110.019 39.9072 109.63 40.4322 109.249C41.6814 109.666 42.6681 110.462 43.3922 111.639C44.1164 112.798 44.4785 114.092 44.4785 115.523C44.4785 116.79 44.216 118.012 43.691 119.189C43.184 120.347 42.4327 121.298 41.437 122.04C40.4413 122.764 39.2645 123.126 37.9067 123.126C36.8204 123.126 35.8157 122.864 34.8924 122.339C33.9871 121.796 33.272 121.062 32.747 120.139C32.222 119.216 31.9595 118.193 31.9595 117.07C31.9595 115.097 32.5388 113.386 33.6975 111.938C34.8742 110.49 36.404 109.485 38.2869 108.924L38.7757 109.494Z" fill="url(#paint9_linear)" fill-opacity="0.2"/>
<path d="M53.7063 109.494C52.3485 110.363 51.2804 111.331 50.5019 112.4C49.7234 113.468 49.3342 114.726 49.3342 116.174C49.3342 116.989 49.5061 117.813 49.8501 118.646C50.1941 119.46 50.7101 120.139 51.398 120.682C52.086 121.225 52.9097 121.497 53.8692 121.497C54.6477 121.497 55.3357 121.316 55.9331 120.954C56.5487 120.592 57.0194 120.103 57.3452 119.487C57.6892 118.872 57.8612 118.193 57.8612 117.451C57.8612 116.6 57.5987 115.731 57.0737 114.844C56.5668 113.957 55.8969 113.205 55.0641 112.59C54.2313 111.974 53.3804 111.63 52.5114 111.558C52.8735 111.196 53.308 110.815 53.8149 110.417C54.3218 110.019 54.8378 109.63 55.3628 109.249C56.612 109.666 57.5987 110.462 58.3229 111.639C59.047 112.798 59.4091 114.092 59.4091 115.523C59.4091 116.79 59.1466 118.012 58.6216 119.189C58.1147 120.347 57.3633 121.298 56.3676 122.04C55.3719 122.764 54.1951 123.126 52.8373 123.126C51.7511 123.126 50.7463 122.864 49.823 122.339C48.9178 121.796 48.2026 121.062 47.6776 120.139C47.1526 119.216 46.8901 118.193 46.8901 117.07C46.8901 115.097 47.4694 113.386 48.6281 111.938C49.8049 110.49 51.3347 109.485 53.2175 108.924L53.7063 109.494Z" fill="#00D8FF"/>
<path d="M53.7063 109.494C52.3485 110.363 51.2804 111.331 50.5019 112.4C49.7234 113.468 49.3342 114.726 49.3342 116.174C49.3342 116.989 49.5061 117.813 49.8501 118.646C50.1941 119.46 50.7101 120.139 51.398 120.682C52.086 121.225 52.9097 121.497 53.8692 121.497C54.6477 121.497 55.3357 121.316 55.9331 120.954C56.5487 120.592 57.0194 120.103 57.3452 119.487C57.6892 118.872 57.8612 118.193 57.8612 117.451C57.8612 116.6 57.5987 115.731 57.0737 114.844C56.5668 113.957 55.8969 113.205 55.0641 112.59C54.2313 111.974 53.3804 111.63 52.5114 111.558C52.8735 111.196 53.308 110.815 53.8149 110.417C54.3218 110.019 54.8378 109.63 55.3628 109.249C56.612 109.666 57.5987 110.462 58.3229 111.639C59.047 112.798 59.4091 114.092 59.4091 115.523C59.4091 116.79 59.1466 118.012 58.6216 119.189C58.1147 120.347 57.3633 121.298 56.3676 122.04C55.3719 122.764 54.1951 123.126 52.8373 123.126C51.7511 123.126 50.7463 122.864 49.823 122.339C48.9178 121.796 48.2026 121.062 47.6776 120.139C47.1526 119.216 46.8901 118.193 46.8901 117.07C46.8901 115.097 47.4694 113.386 48.6281 111.938C49.8049 110.49 51.3347 109.485 53.2175 108.924L53.7063 109.494Z" fill="url(#paint10_linear)" fill-opacity="0.2"/>
<path d="M65.8941 108.055C66.5097 108.055 66.9532 108.163 67.2248 108.38C67.5145 108.598 67.6593 108.933 67.6593 109.385C67.6593 109.874 67.5597 110.309 67.3606 110.689C67.1795 111.069 66.9804 111.395 66.7631 111.666C66.5459 111.938 66.4011 112.128 66.3286 112.237C66.5459 112.599 66.9532 113.024 67.5507 113.513C68.0395 113.929 68.4287 114.301 68.7184 114.626C69.0081 114.952 69.2525 115.396 69.4516 115.957C69.6689 116.5 69.7775 117.17 69.7775 117.967C69.7775 118.908 69.5602 119.768 69.1257 120.546C68.7093 121.325 68.121 121.94 67.3606 122.393C66.6183 122.846 65.7765 123.072 64.8351 123.072C64.2557 123.072 63.6221 122.954 62.9341 122.719C62.2462 122.466 61.7392 122.112 61.4134 121.66L63.2328 119.243C63.6673 119.804 64.1199 120.284 64.5906 120.682C65.0795 121.081 65.6045 121.28 66.1657 121.28C66.9442 121.28 67.605 121.026 68.1481 120.519C68.7093 119.994 68.99 119.37 68.99 118.646C68.99 118.066 68.7456 117.496 68.2567 116.935C67.786 116.355 67.1162 115.676 66.2472 114.898C66.1386 114.807 65.9304 114.626 65.6226 114.355C65.3148 114.065 65.0885 113.83 64.9437 113.649L63.0427 116.446L62.1737 115.876L64.3462 112.861C64.0928 112.155 63.9661 111.458 63.9661 110.77C63.9661 109.992 64.138 109.349 64.482 108.842C64.826 108.317 65.2967 108.055 65.8941 108.055ZM65.8941 109.114C65.6588 109.114 65.5049 109.177 65.4325 109.304C65.3782 109.431 65.351 109.621 65.351 109.874C65.351 110.2 65.3963 110.481 65.4868 110.716C65.5773 110.951 65.6407 111.114 65.6769 111.205C65.876 111.078 66.0571 110.852 66.22 110.526C66.4011 110.182 66.4916 109.892 66.4916 109.657C66.4916 109.494 66.4373 109.367 66.3286 109.277C66.2381 109.168 66.0933 109.114 65.8941 109.114Z" fill="#00D8FF"/>
<path d="M65.8941 108.055C66.5097 108.055 66.9532 108.163 67.2248 108.38C67.5145 108.598 67.6593 108.933 67.6593 109.385C67.6593 109.874 67.5597 110.309 67.3606 110.689C67.1795 111.069 66.9804 111.395 66.7631 111.666C66.5459 111.938 66.4011 112.128 66.3286 112.237C66.5459 112.599 66.9532 113.024 67.5507 113.513C68.0395 113.929 68.4287 114.301 68.7184 114.626C69.0081 114.952 69.2525 115.396 69.4516 115.957C69.6689 116.5 69.7775 117.17 69.7775 117.967C69.7775 118.908 69.5602 119.768 69.1257 120.546C68.7093 121.325 68.121 121.94 67.3606 122.393C66.6183 122.846 65.7765 123.072 64.8351 123.072C64.2557 123.072 63.6221 122.954 62.9341 122.719C62.2462 122.466 61.7392 122.112 61.4134 121.66L63.2328 119.243C63.6673 119.804 64.1199 120.284 64.5906 120.682C65.0795 121.081 65.6045 121.28 66.1657 121.28C66.9442 121.28 67.605 121.026 68.1481 120.519C68.7093 119.994 68.99 119.37 68.99 118.646C68.99 118.066 68.7456 117.496 68.2567 116.935C67.786 116.355 67.1162 115.676 66.2472 114.898C66.1386 114.807 65.9304 114.626 65.6226 114.355C65.3148 114.065 65.0885 113.83 64.9437 113.649L63.0427 116.446L62.1737 115.876L64.3462 112.861C64.0928 112.155 63.9661 111.458 63.9661 110.77C63.9661 109.992 64.138 109.349 64.482 108.842C64.826 108.317 65.2967 108.055 65.8941 108.055ZM65.8941 109.114C65.6588 109.114 65.5049 109.177 65.4325 109.304C65.3782 109.431 65.351 109.621 65.351 109.874C65.351 110.2 65.3963 110.481 65.4868 110.716C65.5773 110.951 65.6407 111.114 65.6769 111.205C65.876 111.078 66.0571 110.852 66.22 110.526C66.4011 110.182 66.4916 109.892 66.4916 109.657C66.4916 109.494 66.4373 109.367 66.3286 109.277C66.2381 109.168 66.0933 109.114 65.8941 109.114Z" fill="url(#paint11_linear)" fill-opacity="0.2"/>
<path d="M79.9825 108.924C80.9601 108.924 81.7748 109.186 82.4266 109.711C83.0783 110.236 83.4042 111.015 83.4042 112.047C83.4042 112.879 82.9516 113.812 82.0464 114.844C81.1593 115.857 80.1092 116.79 78.8963 117.641C77.7014 118.492 76.6785 119.089 75.8276 119.433C76.2802 120.157 76.7962 120.664 77.3755 120.954C77.9548 121.225 78.6337 121.361 79.4122 121.361C80.2812 121.361 81.1412 121.144 81.9921 120.709C82.8611 120.257 83.5762 119.677 84.1374 118.971L84.4633 119.542C83.5762 120.682 82.6348 121.56 81.639 122.176C80.6433 122.773 79.4213 123.072 77.9729 123.072C76.8686 123.072 75.8819 122.8 75.0129 122.257C74.1439 121.714 73.465 120.99 72.9762 120.085C72.4874 119.162 72.243 118.166 72.243 117.098C72.243 115.758 72.6051 114.454 73.3292 113.187C74.0534 111.92 75.0129 110.897 76.2078 110.118C77.4027 109.322 78.6609 108.924 79.9825 108.924ZM78.5704 110.634C77.7738 110.634 77.0587 110.888 76.425 111.395C75.8095 111.902 75.3207 112.553 74.9586 113.35C74.6146 114.147 74.4426 114.97 74.4426 115.821C74.4426 116.944 74.7051 117.903 75.2302 118.7C75.9905 118.356 76.8143 117.84 77.7014 117.152C78.5885 116.446 79.3398 115.686 79.9553 114.871C80.5709 114.056 80.8787 113.314 80.8787 112.644C80.8787 111.304 80.1092 110.634 78.5704 110.634Z" fill="#00D8FF"/>
<path d="M79.9825 108.924C80.9601 108.924 81.7748 109.186 82.4266 109.711C83.0783 110.236 83.4042 111.015 83.4042 112.047C83.4042 112.879 82.9516 113.812 82.0464 114.844C81.1593 115.857 80.1092 116.79 78.8963 117.641C77.7014 118.492 76.6785 119.089 75.8276 119.433C76.2802 120.157 76.7962 120.664 77.3755 120.954C77.9548 121.225 78.6337 121.361 79.4122 121.361C80.2812 121.361 81.1412 121.144 81.9921 120.709C82.8611 120.257 83.5762 119.677 84.1374 118.971L84.4633 119.542C83.5762 120.682 82.6348 121.56 81.639 122.176C80.6433 122.773 79.4213 123.072 77.9729 123.072C76.8686 123.072 75.8819 122.8 75.0129 122.257C74.1439 121.714 73.465 120.99 72.9762 120.085C72.4874 119.162 72.243 118.166 72.243 117.098C72.243 115.758 72.6051 114.454 73.3292 113.187C74.0534 111.92 75.0129 110.897 76.2078 110.118C77.4027 109.322 78.6609 108.924 79.9825 108.924ZM78.5704 110.634C77.7738 110.634 77.0587 110.888 76.425 111.395C75.8095 111.902 75.3207 112.553 74.9586 113.35C74.6146 114.147 74.4426 114.97 74.4426 115.821C74.4426 116.944 74.7051 117.903 75.2302 118.7C75.9905 118.356 76.8143 117.84 77.7014 117.152C78.5885 116.446 79.3398 115.686 79.9553 114.871C80.5709 114.056 80.8787 113.314 80.8787 112.644C80.8787 111.304 80.1092 110.634 78.5704 110.634Z" fill="url(#paint12_linear)" fill-opacity="0.2"/>
<path d="M102.992 117.858C102.558 119.288 101.888 120.465 100.983 121.388C100.077 122.294 98.9006 122.746 97.4522 122.746C96.3841 122.746 95.5694 122.375 95.0082 121.633C94.4469 120.872 94.1663 119.931 94.1663 118.808V106.67C94.1663 106.199 94.0667 105.81 93.8676 105.502C93.6685 105.194 93.3516 105.04 92.9171 105.04C92.6456 105.04 92.3469 105.131 92.021 105.312C91.7132 105.493 91.4779 105.701 91.3149 105.936L90.9347 105.611C91.1701 105.086 91.5503 104.624 92.0753 104.226C92.6184 103.827 93.1525 103.628 93.6775 103.628C94.6189 103.628 95.3521 103.963 95.8772 104.633C96.4203 105.303 96.6918 106.072 96.6918 106.941V117.749C96.6918 118.745 96.8095 119.587 97.0449 120.275C97.2802 120.945 97.7962 121.28 98.5928 121.28C99.6247 121.28 100.476 120.773 101.145 119.759C101.815 118.727 102.304 117.532 102.612 116.174C102.92 114.817 103.074 113.631 103.074 112.617V104.307L105.572 103.384V122.04C105.572 123.253 105.318 124.375 104.812 125.407C104.305 126.439 103.571 127.263 102.612 127.879C101.67 128.494 100.575 128.802 99.326 128.802C97.7328 128.802 96.366 128.304 95.2254 127.308L97.4251 125.462C97.6966 125.987 98.104 126.467 98.6471 126.901C99.1902 127.354 99.7696 127.58 100.385 127.58C101.019 127.58 101.535 127.408 101.933 127.064C102.349 126.72 102.639 126.304 102.802 125.815C102.983 125.326 103.074 124.873 103.074 124.457V117.858H102.992Z" fill="#00D8FF"/>
<path d="M102.992 117.858C102.558 119.288 101.888 120.465 100.983 121.388C100.077 122.294 98.9006 122.746 97.4522 122.746C96.3841 122.746 95.5694 122.375 95.0082 121.633C94.4469 120.872 94.1663 119.931 94.1663 118.808V106.67C94.1663 106.199 94.0667 105.81 93.8676 105.502C93.6685 105.194 93.3516 105.04 92.9171 105.04C92.6456 105.04 92.3469 105.131 92.021 105.312C91.7132 105.493 91.4779 105.701 91.3149 105.936L90.9347 105.611C91.1701 105.086 91.5503 104.624 92.0753 104.226C92.6184 103.827 93.1525 103.628 93.6775 103.628C94.6189 103.628 95.3521 103.963 95.8772 104.633C96.4203 105.303 96.6918 106.072 96.6918 106.941V117.749C96.6918 118.745 96.8095 119.587 97.0449 120.275C97.2802 120.945 97.7962 121.28 98.5928 121.28C99.6247 121.28 100.476 120.773 101.145 119.759C101.815 118.727 102.304 117.532 102.612 116.174C102.92 114.817 103.074 113.631 103.074 112.617V104.307L105.572 103.384V122.04C105.572 123.253 105.318 124.375 104.812 125.407C104.305 126.439 103.571 127.263 102.612 127.879C101.67 128.494 100.575 128.802 99.326 128.802C97.7328 128.802 96.366 128.304 95.2254 127.308L97.4251 125.462C97.6966 125.987 98.104 126.467 98.6471 126.901C99.1902 127.354 99.7696 127.58 100.385 127.58C101.019 127.58 101.535 127.408 101.933 127.064C102.349 126.72 102.639 126.304 102.802 125.815C102.983 125.326 103.074 124.873 103.074 124.457V117.858H102.992Z" fill="url(#paint13_linear)" fill-opacity="0.2"/>
<path d="M115.63 109.494C114.272 110.363 113.204 111.331 112.425 112.4C111.647 113.468 111.258 114.726 111.258 116.174C111.258 116.989 111.43 117.813 111.774 118.646C112.118 119.46 112.634 120.139 113.322 120.682C114.01 121.225 114.833 121.497 115.793 121.497C116.571 121.497 117.259 121.316 117.857 120.954C118.472 120.592 118.943 120.103 119.269 119.487C119.613 118.872 119.785 118.193 119.785 117.451C119.785 116.6 119.522 115.731 118.997 114.844C118.49 113.957 117.821 113.205 116.988 112.59C116.155 111.974 115.304 111.63 114.435 111.558C114.797 111.196 115.232 110.815 115.739 110.417C116.245 110.019 116.761 109.63 117.286 109.249C118.536 109.666 119.522 110.462 120.246 111.639C120.971 112.798 121.333 114.092 121.333 115.523C121.333 116.79 121.07 118.012 120.545 119.189C120.038 120.347 119.287 121.298 118.291 122.04C117.295 122.764 116.119 123.126 114.761 123.126C113.675 123.126 112.67 122.864 111.747 122.339C110.841 121.796 110.126 121.062 109.601 120.139C109.076 119.216 108.814 118.193 108.814 117.07C108.814 115.097 109.393 113.386 110.552 111.938C111.728 110.49 113.258 109.485 115.141 108.924L115.63 109.494Z" fill="#00D8FF"/>
<path d="M115.63 109.494C114.272 110.363 113.204 111.331 112.425 112.4C111.647 113.468 111.258 114.726 111.258 116.174C111.258 116.989 111.43 117.813 111.774 118.646C112.118 119.46 112.634 120.139 113.322 120.682C114.01 121.225 114.833 121.497 115.793 121.497C116.571 121.497 117.259 121.316 117.857 120.954C118.472 120.592 118.943 120.103 119.269 119.487C119.613 118.872 119.785 118.193 119.785 117.451C119.785 116.6 119.522 115.731 118.997 114.844C118.49 113.957 117.821 113.205 116.988 112.59C116.155 111.974 115.304 111.63 114.435 111.558C114.797 111.196 115.232 110.815 115.739 110.417C116.245 110.019 116.761 109.63 117.286 109.249C118.536 109.666 119.522 110.462 120.246 111.639C120.971 112.798 121.333 114.092 121.333 115.523C121.333 116.79 121.07 118.012 120.545 119.189C120.038 120.347 119.287 121.298 118.291 122.04C117.295 122.764 116.119 123.126 114.761 123.126C113.675 123.126 112.67 122.864 111.747 122.339C110.841 121.796 110.126 121.062 109.601 120.139C109.076 119.216 108.814 118.193 108.814 117.07C108.814 115.097 109.393 113.386 110.552 111.938C111.728 110.49 113.258 109.485 115.141 108.924L115.63 109.494Z" fill="url(#paint14_linear)" fill-opacity="0.2"/>
<path d="M135.666 120.384C135.666 120.655 135.729 120.881 135.856 121.062C136.001 121.225 136.2 121.307 136.453 121.307C136.834 121.307 137.295 120.954 137.838 120.248L138.246 120.655C137.866 121.47 137.404 122.049 136.861 122.393C136.336 122.719 136.073 122.882 136.073 122.882C136.073 122.882 135.838 122.882 135.367 122.882C134.788 122.882 134.344 122.719 134.037 122.393C133.747 122.067 133.539 121.488 133.412 120.655C133.285 119.804 133.222 118.546 133.222 116.88C133.222 115.885 133.231 115.088 133.249 114.491L133.032 113.948H132.95C132.48 116.174 131.819 118.256 130.968 120.193C130.135 122.112 128.94 123.072 127.383 123.072C126.804 123.072 126.378 122.927 126.107 122.637C125.853 122.348 125.7 121.959 125.645 121.47C125.591 120.963 125.564 120.193 125.564 119.161V111.503C125.564 111.196 125.491 110.951 125.347 110.77C125.22 110.589 125.039 110.499 124.803 110.499C124.369 110.499 123.88 110.861 123.337 111.585L123.011 111.15C123.301 110.462 123.663 109.956 124.097 109.63C124.55 109.286 124.966 109.077 125.347 109.005C125.745 108.915 125.944 108.896 125.944 108.951C125.926 108.951 125.899 108.96 125.863 108.978C125.826 108.978 125.772 108.978 125.7 108.978C127.257 108.978 128.035 109.874 128.035 111.666V119.487C128.035 119.886 128.08 120.175 128.171 120.356C128.261 120.519 128.37 120.601 128.497 120.601C129.275 120.601 129.999 119.84 130.669 118.32C131.339 116.799 131.882 115.124 132.299 113.296C132.733 111.467 132.95 110.372 132.95 110.01L135.666 108.788V120.384Z" fill="#00D8FF"/>
<path d="M135.666 120.384C135.666 120.655 135.729 120.881 135.856 121.062C136.001 121.225 136.2 121.307 136.453 121.307C136.834 121.307 137.295 120.954 137.838 120.248L138.246 120.655C137.866 121.47 137.404 122.049 136.861 122.393C136.336 122.719 136.073 122.882 136.073 122.882C136.073 122.882 135.838 122.882 135.367 122.882C134.788 122.882 134.344 122.719 134.037 122.393C133.747 122.067 133.539 121.488 133.412 120.655C133.285 119.804 133.222 118.546 133.222 116.88C133.222 115.885 133.231 115.088 133.249 114.491L133.032 113.948H132.95C132.48 116.174 131.819 118.256 130.968 120.193C130.135 122.112 128.94 123.072 127.383 123.072C126.804 123.072 126.378 122.927 126.107 122.637C125.853 122.348 125.7 121.959 125.645 121.47C125.591 120.963 125.564 120.193 125.564 119.161V111.503C125.564 111.196 125.491 110.951 125.347 110.77C125.22 110.589 125.039 110.499 124.803 110.499C124.369 110.499 123.88 110.861 123.337 111.585L123.011 111.15C123.301 110.462 123.663 109.956 124.097 109.63C124.55 109.286 124.966 109.077 125.347 109.005C125.745 108.915 125.944 108.896 125.944 108.951C125.926 108.951 125.899 108.96 125.863 108.978C125.826 108.978 125.772 108.978 125.7 108.978C127.257 108.978 128.035 109.874 128.035 111.666V119.487C128.035 119.886 128.08 120.175 128.171 120.356C128.261 120.519 128.37 120.601 128.497 120.601C129.275 120.601 129.999 119.84 130.669 118.32C131.339 116.799 131.882 115.124 132.299 113.296C132.733 111.467 132.95 110.372 132.95 110.01L135.666 108.788V120.384Z" fill="url(#paint15_linear)" fill-opacity="0.2"/>
<path d="M146.115 112.481C145.3 113.332 144.594 114.445 143.997 115.821C143.417 117.179 143.128 118.419 143.128 119.542C143.128 120.519 143.336 121.343 143.752 122.013C144.187 122.665 144.875 122.991 145.816 122.991C146.577 122.991 147.301 122.791 147.989 122.393C148.695 121.995 149.292 121.479 149.781 120.845L149.482 120.438C148.921 120.818 148.369 121.008 147.826 121.008C146.975 121.008 146.332 120.709 145.898 120.112C145.463 119.515 145.246 118.79 145.246 117.939C145.246 116.564 145.599 115.26 146.305 114.029C147.011 112.798 147.907 111.603 148.993 110.444L148.559 110.064C147.292 110.861 146.133 111.259 145.083 111.259C144.467 111.259 143.906 110.987 143.399 110.444C142.892 109.883 142.503 109.268 142.232 108.598L140.032 111.069C140.159 111.431 140.503 111.847 141.064 112.318L139.244 116.12L140.249 116.582L142.014 112.698C142.322 112.825 142.576 112.907 142.775 112.943C142.974 112.979 143.245 112.997 143.589 112.997C144.476 112.997 145.291 112.798 146.033 112.4L146.115 112.481Z" fill="#00D8FF"/>
<path d="M146.115 112.481C145.3 113.332 144.594 114.445 143.997 115.821C143.417 117.179 143.128 118.419 143.128 119.542C143.128 120.519 143.336 121.343 143.752 122.013C144.187 122.665 144.875 122.991 145.816 122.991C146.577 122.991 147.301 122.791 147.989 122.393C148.695 121.995 149.292 121.479 149.781 120.845L149.482 120.438C148.921 120.818 148.369 121.008 147.826 121.008C146.975 121.008 146.332 120.709 145.898 120.112C145.463 119.515 145.246 118.79 145.246 117.939C145.246 116.564 145.599 115.26 146.305 114.029C147.011 112.798 147.907 111.603 148.993 110.444L148.559 110.064C147.292 110.861 146.133 111.259 145.083 111.259C144.467 111.259 143.906 110.987 143.399 110.444C142.892 109.883 142.503 109.268 142.232 108.598L140.032 111.069C140.159 111.431 140.503 111.847 141.064 112.318L139.244 116.12L140.249 116.582L142.014 112.698C142.322 112.825 142.576 112.907 142.775 112.943C142.974 112.979 143.245 112.997 143.589 112.997C144.476 112.997 145.291 112.798 146.033 112.4L146.115 112.481Z" fill="url(#paint16_linear)" fill-opacity="0.2"/>
<path d="M74.9512 58.129C81.0152 58.129 85.9311 53.2131 85.9311 47.1491C85.9311 41.085 81.0152 36.1692 74.9512 36.1692C68.8871 36.1692 63.9713 41.085 63.9713 47.1491C63.9713 53.2131 68.8871 58.129 74.9512 58.129Z" fill="#00D8FF"/>
<path d="M74.9512 58.129C81.0152 58.129 85.9311 53.2131 85.9311 47.1491C85.9311 41.085 81.0152 36.1692 74.9512 36.1692C68.8871 36.1692 63.9713 41.085 63.9713 47.1491C63.9713 53.2131 68.8871 58.129 74.9512 58.129Z" fill="url(#paint17_linear)" fill-opacity="0.2"/>
<path d="M99.4946 12.9176C103.062 12.9176 105.953 10.0259 105.953 6.45878C105.953 2.89169 103.062 0 99.4946 0C95.9275 0 93.0358 2.89169 93.0358 6.45878C93.0358 10.0259 95.9275 12.9176 99.4946 12.9176Z" fill="#00D8FF"/>
<path d="M99.4946 12.9176C103.062 12.9176 105.953 10.0259 105.953 6.45878C105.953 2.89169 103.062 0 99.4946 0C95.9275 0 93.0358 2.89169 93.0358 6.45878C93.0358 10.0259 95.9275 12.9176 99.4946 12.9176Z" fill="url(#paint18_linear)" fill-opacity="0.2"/>
<path d="M122.746 53.6079C126.313 53.6079 129.205 50.7162 129.205 47.1491C129.205 43.582 126.313 40.6903 122.746 40.6903C119.179 40.6903 116.287 43.582 116.287 47.1491C116.287 50.7162 119.179 53.6079 122.746 53.6079Z" fill="#00D8FF"/>
<path d="M122.746 53.6079C126.313 53.6079 129.205 50.7162 129.205 47.1491C129.205 43.582 126.313 40.6903 122.746 40.6903C119.179 40.6903 116.287 43.582 116.287 47.1491C116.287 50.7162 119.179 53.6079 122.746 53.6079Z" fill="url(#paint19_linear)" fill-opacity="0.2"/>
<path d="M98.2028 95.5899C101.77 95.5899 104.662 92.6982 104.662 89.1311C104.662 85.564 101.77 82.6723 98.2028 82.6723C94.6357 82.6723 91.744 85.564 91.744 89.1311C91.744 92.6982 94.6357 95.5899 98.2028 95.5899Z" fill="#00D8FF"/>
<path d="M98.2028 95.5899C101.77 95.5899 104.662 92.6982 104.662 89.1311C104.662 85.564 101.77 82.6723 98.2028 82.6723C94.6357 82.6723 91.744 85.564 91.744 89.1311C91.744 92.6982 94.6357 95.5899 98.2028 95.5899Z" fill="url(#paint20_linear)" fill-opacity="0.2"/>
<path d="M50.4078 95.5899C53.9749 95.5899 56.8666 92.6982 56.8666 89.1311C56.8666 85.564 53.9749 82.6723 50.4078 82.6723C46.8408 82.6723 43.9491 85.564 43.9491 89.1311C43.9491 92.6982 46.8408 95.5899 50.4078 95.5899Z" fill="#00D8FF"/>
<path d="M50.4078 95.5899C53.9749 95.5899 56.8666 92.6982 56.8666 89.1311C56.8666 85.564 53.9749 82.6723 50.4078 82.6723C46.8408 82.6723 43.9491 85.564 43.9491 89.1311C43.9491 92.6982 46.8408 95.5899 50.4078 95.5899Z" fill="url(#paint21_linear)" fill-opacity="0.2"/>
<path d="M27.1562 53.6079C30.7233 53.6079 33.615 50.7162 33.615 47.1491C33.615 43.582 30.7233 40.6903 27.1562 40.6903C23.5892 40.6903 20.6975 43.582 20.6975 47.1491C20.6975 50.7162 23.5892 53.6079 27.1562 53.6079Z" fill="#00D8FF"/>
<path d="M27.1562 53.6079C30.7233 53.6079 33.615 50.7162 33.615 47.1491C33.615 43.582 30.7233 40.6903 27.1562 40.6903C23.5892 40.6903 20.6975 43.582 20.6975 47.1491C20.6975 50.7162 23.5892 53.6079 27.1562 53.6079Z" fill="url(#paint22_linear)" fill-opacity="0.2"/>
<path d="M50.4078 12.9176C53.9749 12.9176 56.8666 10.0259 56.8666 6.45878C56.8666 2.89169 53.9749 0 50.4078 0C46.8408 0 43.9491 2.89169 43.9491 6.45878C43.9491 10.0259 46.8408 12.9176 50.4078 12.9176Z" fill="#00D8FF"/>
<path d="M50.4078 12.9176C53.9749 12.9176 56.8666 10.0259 56.8666 6.45878C56.8666 2.89169 53.9749 0 50.4078 0C46.8408 0 43.9491 2.89169 43.9491 6.45878C43.9491 10.0259 46.8408 12.9176 50.4078 12.9176Z" fill="url(#paint23_linear)" fill-opacity="0.2"/>
<path fill-rule="evenodd" clip-rule="evenodd" d="M74.9527 31.0786C62.9345 31.0786 51.6844 32.8283 43.4705 35.6899C43.4704 35.69 43.4705 35.6899 43.4705 35.6899C38.615 37.3822 34.8652 39.4633 32.3733 41.5948C29.8329 43.7678 28.8771 45.7384 28.8771 47.2178C28.8771 48.7593 29.9181 50.8777 32.6377 53.2066C35.2966 55.4835 39.2777 57.7024 44.3889 59.4492C52.4508 62.2043 63.3207 63.5384 74.9527 63.5384C86.2701 63.5384 96.9189 62.1203 104.911 59.4725C110.212 57.7169 114.352 55.5068 117.12 53.2281C119.952 50.8964 121.025 48.7772 121.025 47.2178C121.025 45.7486 120.033 43.7616 117.39 41.5564C114.807 39.401 110.946 37.3039 106.015 35.6065C106.015 35.6064 106.015 35.6065 106.015 35.6065C97.8276 32.7892 86.85 31.0786 74.9527 31.0786ZM42.0541 31.6253C50.826 28.5692 62.5746 26.7743 74.9527 26.7743C87.2138 26.7743 98.6819 28.5311 107.415 31.5364C112.678 33.3479 117.048 35.6654 120.148 38.2515C123.188 40.7879 125.33 43.8696 125.33 47.2178C125.33 50.678 123.082 53.8952 119.855 56.5511C116.565 59.2602 111.909 61.6891 106.265 63.5585C97.7051 66.3942 86.5685 67.8427 74.9527 67.8427C63.0685 67.8427 51.6771 66.4886 42.997 63.5222C37.5188 61.65 33.0158 59.1972 29.8381 56.476C26.721 53.8068 24.5727 50.6008 24.5727 47.2178C24.5727 43.9184 26.61 40.8605 29.5754 38.3239C32.5893 35.7458 36.8585 33.4361 42.0541 31.6253Z" fill="#00D8FF"/>
<path fill-rule="evenodd" clip-rule="evenodd" d="M74.9527 31.0786C62.9345 31.0786 51.6844 32.8283 43.4705 35.6899C43.4704 35.69 43.4705 35.6899 43.4705 35.6899C38.615 37.3822 34.8652 39.4633 32.3733 41.5948C29.8329 43.7678 28.8771 45.7384 28.8771 47.2178C28.8771 48.7593 29.9181 50.8777 32.6377 53.2066C35.2966 55.4835 39.2777 57.7024 44.3889 59.4492C52.4508 62.2043 63.3207 63.5384 74.9527 63.5384C86.2701 63.5384 96.9189 62.1203 104.911 59.4725C110.212 57.7169 114.352 55.5068 117.12 53.2281C119.952 50.8964 121.025 48.7772 121.025 47.2178C121.025 45.7486 120.033 43.7616 117.39 41.5564C114.807 39.401 110.946 37.3039 106.015 35.6065C106.015 35.6064 106.015 35.6065 106.015 35.6065C97.8276 32.7892 86.85 31.0786 74.9527 31.0786ZM42.0541 31.6253C50.826 28.5692 62.5746 26.7743 74.9527 26.7743C87.2138 26.7743 98.6819 28.5311 107.415 31.5364C112.678 33.3479 117.048 35.6654 120.148 38.2515C123.188 40.7879 125.33 43.8696 125.33 47.2178C125.33 50.678 123.082 53.8952 119.855 56.5511C116.565 59.2602 111.909 61.6891 106.265 63.5585C97.7051 66.3942 86.5685 67.8427 74.9527 67.8427C63.0685 67.8427 51.6771 66.4886 42.997 63.5222C37.5188 61.65 33.0158 59.1972 29.8381 56.476C26.721 53.8068 24.5727 50.6008 24.5727 47.2178C24.5727 43.9184 26.61 40.8605 29.5754 38.3239C32.5893 35.7458 36.8585 33.4361 42.0541 31.6253Z" fill="url(#paint24_linear)" fill-opacity="0.2"/>
<path fill-rule="evenodd" clip-rule="evenodd" d="M91.1501 7.84922C94.587 6.56646 96.9585 6.69929 98.3083 7.4809L98.3091 7.48138C99.5799 8.21648 100.802 10.07 101.387 13.4623C101.958 16.778 101.838 21.1706 100.837 26.2887C100.837 26.2888 100.837 26.2886 100.837 26.2887C99.1739 34.7865 95.1551 45.1432 89.1948 55.4414C83.1739 65.8424 76.0238 74.702 69.432 80.3763C65.5332 83.7305 61.8534 85.9323 58.7604 87.0204C55.6073 88.1296 53.4229 87.9694 52.1418 87.228C50.8084 86.4567 49.496 84.4949 48.8427 80.9742C48.204 77.5324 48.2778 72.9749 49.327 67.6757C50.9793 59.3224 55.2731 49.246 61.1011 39.1786C66.7717 29.3814 73.3302 20.8779 79.6279 15.2866C83.8046 11.578 87.7915 9.10283 91.1501 7.84922ZM89.645 3.81663C85.6519 5.30702 81.2171 8.11924 76.77 12.0679C70.0251 18.0563 63.1958 26.967 57.3759 37.0223C51.4221 47.3069 46.884 57.8445 45.1046 66.8397C45.1046 66.8398 45.1047 66.8396 45.1046 66.8397C43.9801 72.5193 43.8472 77.646 44.6106 81.7596C45.3594 85.7944 47.0582 89.2598 49.9861 90.9537C52.8414 92.6059 56.5077 92.3758 60.1888 91.0808C63.93 89.7647 68.068 87.228 72.2397 83.6388L72.2401 83.6384C79.2799 77.5785 86.7189 68.3102 92.92 57.5978C99.0625 46.9849 103.287 36.1804 105.061 27.1155C106.13 21.6532 106.314 16.7097 105.629 12.7316C104.957 8.83053 103.363 5.43275 100.465 3.756C100.465 3.75588 100.465 3.75576 100.465 3.75565C100.465 3.7556 100.465 3.75569 100.465 3.75565C97.4699 2.02203 93.5596 2.35554 89.645 3.81663Z" fill="#00D8FF"/>
<path fill-rule="evenodd" clip-rule="evenodd" d="M91.1501 7.84922C94.587 6.56646 96.9585 6.69929 98.3083 7.4809L98.3091 7.48138C99.5799 8.21648 100.802 10.07 101.387 13.4623C101.958 16.778 101.838 21.1706 100.837 26.2887C100.837 26.2888 100.837 26.2886 100.837 26.2887C99.1739 34.7865 95.1551 45.1432 89.1948 55.4414C83.1739 65.8424 76.0238 74.702 69.432 80.3763C65.5332 83.7305 61.8534 85.9323 58.7604 87.0204C55.6073 88.1296 53.4229 87.9694 52.1418 87.228C50.8084 86.4567 49.496 84.4949 48.8427 80.9742C48.204 77.5324 48.2778 72.9749 49.327 67.6757C50.9793 59.3224 55.2731 49.246 61.1011 39.1786C66.7717 29.3814 73.3302 20.8779 79.6279 15.2866C83.8046 11.578 87.7915 9.10283 91.1501 7.84922ZM89.645 3.81663C85.6519 5.30702 81.2171 8.11924 76.77 12.0679C70.0251 18.0563 63.1958 26.967 57.3759 37.0223C51.4221 47.3069 46.884 57.8445 45.1046 66.8397C45.1046 66.8398 45.1047 66.8396 45.1046 66.8397C43.9801 72.5193 43.8472 77.646 44.6106 81.7596C45.3594 85.7944 47.0582 89.2598 49.9861 90.9537C52.8414 92.6059 56.5077 92.3758 60.1888 91.0808C63.93 89.7647 68.068 87.228 72.2397 83.6388L72.2401 83.6384C79.2799 77.5785 86.7189 68.3102 92.92 57.5978C99.0625 46.9849 103.287 36.1804 105.061 27.1155C106.13 21.6532 106.314 16.7097 105.629 12.7316C104.957 8.83053 103.363 5.43275 100.465 3.756C100.465 3.75588 100.465 3.75576 100.465 3.75565C100.465 3.7556 100.465 3.75569 100.465 3.75565C97.4699 2.02203 93.5596 2.35554 89.645 3.81663Z" fill="url(#paint25_linear)" fill-opacity="0.2"/>
<path fill-rule="evenodd" clip-rule="evenodd" d="M58.9505 7.84922C55.5137 6.56646 53.1422 6.69929 51.7924 7.4809L51.7915 7.48138C50.5207 8.21648 49.2983 10.07 48.714 13.4623C48.1428 16.778 48.2623 21.1706 49.2635 26.2887C49.2635 26.2888 49.2635 26.2886 49.2635 26.2887C50.9268 34.7865 54.9455 45.1432 60.9059 55.4414C66.9268 65.8424 74.0769 74.702 80.6686 80.3763C84.5674 83.7305 88.2472 85.9323 91.3403 87.0204C94.4934 88.1296 96.6777 87.9694 97.9589 87.228C99.2922 86.4567 100.605 84.4949 101.258 80.9742C101.897 77.5324 101.823 72.9749 100.774 67.6757C99.1213 59.3224 94.8275 49.246 88.9995 39.1786C83.329 29.3814 76.7705 20.8779 70.4728 15.2866C66.2961 11.578 62.3092 9.10283 58.9505 7.84922ZM60.4557 3.81663C64.4487 5.30702 68.8836 8.11924 73.3306 12.0679C80.0756 18.0563 86.9048 26.967 92.7248 37.0223C98.6785 47.3069 103.217 57.8445 104.996 66.8397C104.996 66.8398 104.996 66.8396 104.996 66.8397C106.121 72.5193 106.253 77.646 105.49 81.7596C104.741 85.7944 103.042 89.2598 100.115 90.9537C97.2592 92.6059 93.5929 92.3758 89.9118 91.0808C86.1706 89.7647 82.0327 87.228 77.861 83.6388L77.8605 83.6384C70.8208 77.5785 63.3818 68.3102 57.1807 57.5978C51.0381 46.9849 46.8136 36.1804 45.0393 27.1155C43.9708 21.6532 43.7869 16.7097 44.4721 12.7316C45.1441 8.83053 46.7376 5.43275 49.6354 3.756C49.6356 3.75588 49.6358 3.75576 49.636 3.75565C49.6361 3.7556 49.636 3.75569 49.636 3.75565C52.6307 2.02203 56.5411 2.35554 60.4557 3.81663Z" fill="#00D8FF"/>
<path fill-rule="evenodd" clip-rule="evenodd" d="M58.9505 7.84922C55.5137 6.56646 53.1422 6.69929 51.7924 7.4809L51.7915 7.48138C50.5207 8.21648 49.2983 10.07 48.714 13.4623C48.1428 16.778 48.2623 21.1706 49.2635 26.2887C49.2635 26.2888 49.2635 26.2886 49.2635 26.2887C50.9268 34.7865 54.9455 45.1432 60.9059 55.4414C66.9268 65.8424 74.0769 74.702 80.6686 80.3763C84.5674 83.7305 88.2472 85.9323 91.3403 87.0204C94.4934 88.1296 96.6777 87.9694 97.9589 87.228C99.2922 86.4567 100.605 84.4949 101.258 80.9742C101.897 77.5324 101.823 72.9749 100.774 67.6757C99.1213 59.3224 94.8275 49.246 88.9995 39.1786C83.329 29.3814 76.7705 20.8779 70.4728 15.2866C66.2961 11.578 62.3092 9.10283 58.9505 7.84922ZM60.4557 3.81663C64.4487 5.30702 68.8836 8.11924 73.3306 12.0679C80.0756 18.0563 86.9048 26.967 92.7248 37.0223C98.6785 47.3069 103.217 57.8445 104.996 66.8397C104.996 66.8398 104.996 66.8396 104.996 66.8397C106.121 72.5193 106.253 77.646 105.49 81.7596C104.741 85.7944 103.042 89.2598 100.115 90.9537C97.2592 92.6059 93.5929 92.3758 89.9118 91.0808C86.1706 89.7647 82.0327 87.228 77.861 83.6388L77.8605 83.6384C70.8208 77.5785 63.3818 68.3102 57.1807 57.5978C51.0381 46.9849 46.8136 36.1804 45.0393 27.1155C43.9708 21.6532 43.7869 16.7097 44.4721 12.7316C45.1441 8.83053 46.7376 5.43275 49.6354 3.756C49.6356 3.75588 49.6358 3.75576 49.636 3.75565C49.6361 3.7556 49.636 3.75569 49.636 3.75565C52.6307 2.02203 56.5411 2.35554 60.4557 3.81663Z" fill="url(#paint26_linear)" fill-opacity="0.2"/>
<defs>
<linearGradient id="paint0_linear" x1="42.6353" y1="87.9862" x2="122.746" y2="8.68998" gradientUnits="userSpaceOnUse">
<stop stop-color="#011013"/>
<stop offset="0.497066" stop-color="#01080A" stop-opacity="0.504742"/>
<stop offset="1" stop-opacity="0"/>
</linearGradient>
<linearGradient id="paint1_linear" x1="42.6353" y1="87.9862" x2="122.746" y2="8.68998" gradientUnits="userSpaceOnUse">
<stop stop-color="#011013"/>
<stop offset="0.497066" stop-color="#01080A" stop-opacity="0.504742"/>
<stop offset="1" stop-opacity="0"/>
</linearGradient>
<linearGradient id="paint2_linear" x1="42.6353" y1="87.9862" x2="122.746" y2="8.68998" gradientUnits="userSpaceOnUse">
<stop stop-color="#011013"/>
<stop offset="0.497066" stop-color="#01080A" stop-opacity="0.504742"/>
<stop offset="1" stop-opacity="0"/>
</linearGradient>
<linearGradient id="paint3_linear" x1="42.6353" y1="87.9862" x2="122.746" y2="8.68998" gradientUnits="userSpaceOnUse">
<stop stop-color="#011013"/>
<stop offset="0.497066" stop-color="#01080A" stop-opacity="0.504742"/>
<stop offset="1" stop-opacity="0"/>
</linearGradient>
<linearGradient id="paint4_linear" x1="42.6353" y1="87.9862" x2="122.746" y2="8.68998" gradientUnits="userSpaceOnUse">
<stop stop-color="#011013"/>
<stop offset="0.497066" stop-color="#01080A" stop-opacity="0.504742"/>
<stop offset="1" stop-opacity="0"/>
</linearGradient>
<linearGradient id="paint5_linear" x1="42.6353" y1="87.9862" x2="122.746" y2="8.68998" gradientUnits="userSpaceOnUse">
<stop stop-color="#011013"/>
<stop offset="0.497066" stop-color="#01080A" stop-opacity="0.504742"/>
<stop offset="1" stop-opacity="0"/>
</linearGradient>
<linearGradient id="paint6_linear" x1="42.6353" y1="87.9862" x2="122.746" y2="8.68998" gradientUnits="userSpaceOnUse">
<stop stop-color="#011013"/>
<stop offset="0.497066" stop-color="#01080A" stop-opacity="0.504742"/>
<stop offset="1" stop-opacity="0"/>
</linearGradient>
<linearGradient id="paint7_linear" x1="42.6353" y1="87.9862" x2="122.746" y2="8.68998" gradientUnits="userSpaceOnUse">
<stop stop-color="#011013"/>
<stop offset="0.497066" stop-color="#01080A" stop-opacity="0.504742"/>
<stop offset="1" stop-opacity="0"/>
</linearGradient>
<linearGradient id="paint8_linear" x1="42.6353" y1="87.9862" x2="122.746" y2="8.68998" gradientUnits="userSpaceOnUse">
<stop stop-color="#011013"/>
<stop offset="0.497066" stop-color="#01080A" stop-opacity="0.504742"/>
<stop offset="1" stop-opacity="0"/>
</linearGradient>
<linearGradient id="paint9_linear" x1="42.6353" y1="87.9862" x2="122.746" y2="8.68998" gradientUnits="userSpaceOnUse">
<stop stop-color="#011013"/>
<stop offset="0.497066" stop-color="#01080A" stop-opacity="0.504742"/>
<stop offset="1" stop-opacity="0"/>
</linearGradient>
<linearGradient id="paint10_linear" x1="42.6353" y1="87.9862" x2="122.746" y2="8.68998" gradientUnits="userSpaceOnUse">
<stop stop-color="#011013"/>
<stop offset="0.497066" stop-color="#01080A" stop-opacity="0.504742"/>
<stop offset="1" stop-opacity="0"/>
</linearGradient>
<linearGradient id="paint11_linear" x1="42.6353" y1="87.9862" x2="122.746" y2="8.68998" gradientUnits="userSpaceOnUse">
<stop stop-color="#011013"/>
<stop offset="0.497066" stop-color="#01080A" stop-opacity="0.504742"/>
<stop offset="1" stop-opacity="0"/>
</linearGradient>
<linearGradient id="paint12_linear" x1="42.6353" y1="87.9862" x2="122.746" y2="8.68998" gradientUnits="userSpaceOnUse">
<stop stop-color="#011013"/>
<stop offset="0.497066" stop-color="#01080A" stop-opacity="0.504742"/>
<stop offset="1" stop-opacity="0"/>
</linearGradient>
<linearGradient id="paint13_linear" x1="42.6353" y1="87.9862" x2="122.746" y2="8.68998" gradientUnits="userSpaceOnUse">
<stop stop-color="#011013"/>
<stop offset="0.497066" stop-color="#01080A" stop-opacity="0.504742"/>
<stop offset="1" stop-opacity="0"/>
</linearGradient>
<linearGradient id="paint14_linear" x1="42.6353" y1="87.9862" x2="122.746" y2="8.68998" gradientUnits="userSpaceOnUse">
<stop stop-color="#011013"/>
<stop offset="0.497066" stop-color="#01080A" stop-opacity="0.504742"/>
<stop offset="1" stop-opacity="0"/>
</linearGradient>
<linearGradient id="paint15_linear" x1="42.6353" y1="87.9862" x2="122.746" y2="8.68998" gradientUnits="userSpaceOnUse">
<stop stop-color="#011013"/>
<stop offset="0.497066" stop-color="#01080A" stop-opacity="0.504742"/>
<stop offset="1" stop-opacity="0"/>
</linearGradient>
<linearGradient id="paint16_linear" x1="42.6353" y1="87.9862" x2="122.746" y2="8.68998" gradientUnits="userSpaceOnUse">
<stop stop-color="#011013"/>
<stop offset="0.497066" stop-color="#01080A" stop-opacity="0.504742"/>
<stop offset="1" stop-opacity="0"/>
</linearGradient>
<linearGradient id="paint17_linear" x1="42.6353" y1="87.9862" x2="122.746" y2="8.68998" gradientUnits="userSpaceOnUse">
<stop stop-color="#011013"/>
<stop offset="0.497066" stop-color="#01080A" stop-opacity="0.504742"/>
<stop offset="1" stop-opacity="0"/>
</linearGradient>
<linearGradient id="paint18_linear" x1="42.6353" y1="87.9862" x2="122.746" y2="8.68998" gradientUnits="userSpaceOnUse">
<stop stop-color="#011013"/>
<stop offset="0.497066" stop-color="#01080A" stop-opacity="0.504742"/>
<stop offset="1" stop-opacity="0"/>
</linearGradient>
<linearGradient id="paint19_linear" x1="42.6353" y1="87.9862" x2="122.746" y2="8.68998" gradientUnits="userSpaceOnUse">
<stop stop-color="#011013"/>
<stop offset="0.497066" stop-color="#01080A" stop-opacity="0.504742"/>
<stop offset="1" stop-opacity="0"/>
</linearGradient>
<linearGradient id="paint20_linear" x1="42.6353" y1="87.9862" x2="122.746" y2="8.68998" gradientUnits="userSpaceOnUse">
<stop stop-color="#011013"/>
<stop offset="0.497066" stop-color="#01080A" stop-opacity="0.504742"/>
<stop offset="1" stop-opacity="0"/>
</linearGradient>
<linearGradient id="paint21_linear" x1="42.6353" y1="87.9862" x2="122.746" y2="8.68998" gradientUnits="userSpaceOnUse">
<stop stop-color="#011013"/>
<stop offset="0.497066" stop-color="#01080A" stop-opacity="0.504742"/>
<stop offset="1" stop-opacity="0"/>
</linearGradient>
<linearGradient id="paint22_linear" x1="42.6353" y1="87.9862" x2="122.746" y2="8.68998" gradientUnits="userSpaceOnUse">
<stop stop-color="#011013"/>
<stop offset="0.497066" stop-color="#01080A" stop-opacity="0.504742"/>
<stop offset="1" stop-opacity="0"/>
</linearGradient>
<linearGradient id="paint23_linear" x1="42.6353" y1="87.9862" x2="122.746" y2="8.68998" gradientUnits="userSpaceOnUse">
<stop stop-color="#011013"/>
<stop offset="0.497066" stop-color="#01080A" stop-opacity="0.504742"/>
<stop offset="1" stop-opacity="0"/>
</linearGradient>
<linearGradient id="paint24_linear" x1="42.6353" y1="87.9862" x2="122.746" y2="8.68998" gradientUnits="userSpaceOnUse">
<stop stop-color="#011013"/>
<stop offset="0.497066" stop-color="#01080A" stop-opacity="0.504742"/>
<stop offset="1" stop-opacity="0"/>
</linearGradient>
<linearGradient id="paint25_linear" x1="42.6353" y1="87.9862" x2="122.746" y2="8.68998" gradientUnits="userSpaceOnUse">
<stop stop-color="#011013"/>
<stop offset="0.497066" stop-color="#01080A" stop-opacity="0.504742"/>
<stop offset="1" stop-opacity="0"/>
</linearGradient>
<linearGradient id="paint26_linear" x1="42.6353" y1="87.9862" x2="122.746" y2="8.68998" gradientUnits="userSpaceOnUse">
<stop stop-color="#011013"/>
<stop offset="0.497066" stop-color="#01080A" stop-opacity="0.504742"/>
<stop offset="1" stop-opacity="0"/>
</linearGradient>
</defs>
</svg>
